<?xml version="1.0" standalone="no"?>
<!DOCTYPE svg PUBLIC "-//W3C//DTD SVG 20010904//EN"
 "http://www.w3.org/TR/2001/REC-SVG-20010904/DTD/svg10.dtd">
<svg version="1.0" xmlns="http://www.w3.org/2000/svg"
 width="2417.000000pt" height="1667.000000pt" viewBox="0 0 2417.000000 1667.000000"
 preserveAspectRatio="xMidYMid meet">
<g transform="translate(0.000000,1667.000000) scale(0.100000,-0.100000)"
fill="#000000" stroke="none">
<path d="M18346 11677 l-1865 -1872 -1 748 0 747 -1188 0 -1187 0 -698 -698
-697 -697 0 -2283 0 -2282 785 0 785 0 0 2200 0 2200 1067 0 1068 0 -260 -260
c-143 -143 -263 -260 -267 -260 -5 0 -8 30 -8 68 0 37 -3 138 -7 225 l-6 157
-739 0 -738 0 0 -62 c0 -35 -7 -499 -15 -1033 -22 -1457 -30 -3050 -16 -3102
11 -41 13 -43 52 -43 35 0 48 8 107 62 239 218 1521 1487 3480 3443 l2264
2260 -5 1135 c-4 624 -9 1152 -13 1172 -3 20 -12 39 -19 42 -8 3 -767 -752
-1879 -1867z m1808 518 l7 -941 -2233 -2229 c-1995 -1992 -3359 -3342 -3442
-3406 l-29 -23 6 999 c6 748 25 2298 37 2953 0 9 133 12 630 12 l630 0 1 -32
c0 -18 6 -156 12 -307 l12 -274 2175 2181 2175 2182 6 -88 c4 -48 9 -510 13
-1027z m-3786 -1672 l-3 -668 -1097 -3 -1098 -2 -2 -2198 -3 -2197 -672 -3
-673 -2 0 2202 0 2203 667 667 668 668 1108 0 1107 0 -2 -667z"/>
<path d="M7290 11775 l0 -1180 1095 -1095 1095 -1095 0 -2436 c0 -1340 3
-2439 7 -2443 4 -4 357 343 785 771 l778 778 0 1650 0 1650 1645 1645 c904
904 1646 1642 1649 1639 3 -2 8 -64 12 -136 l7 -131 371 -6 c204 -3 543 -8
754 -12 l382 -6 0 251 0 251 -765 0 -765 0 0 -50 0 -50 -1143 0 -1142 0 -895
-895 -895 -895 -1487 1487 -1488 1488 0 -1180z m2975 -1945 c6 0 422 412 925
915 l915 915 1035 0 1035 0 -1618 -1618 -1617 -1617 0 -1650 0 -1650 -675
-675 -675 -675 0 2340 0 2340 -1095 1095 -1095 1095 0 1020 0 1020 1428 -1428
c785 -785 1432 -1427 1437 -1427z m5495 1790 l0 -139 -372 5 c-205 2 -495 7
-645 10 l-272 6 -5 62 c-3 33 -7 91 -10 129 l-4 67 654 0 654 0 0 -140z"/>
<path d="M5858 10613 l-768 -768 0 -2300 0 -2300 781 780 780 780 -7 1905 c-4
1048 -9 2077 -13 2288 l-6 382 -767 -767z m676 -1848 l7 -1910 -670 -670 -671
-670 0 2140 0 2140 658 658 657 657 6 -217 c4 -120 9 -1077 13 -2128z"/>
<path d="M9915 11308 c-401 -10 -750 -21 -774 -24 l-44 -6 589 -589 c324 -324
593 -589 597 -589 12 0 767 751 953 949 142 150 164 177 164 206 0 20 -8 39
-21 51 -20 18 -42 19 -378 20 -196 1 -684 -7 -1086 -18z m1207 -215 c-164
-174 -827 -833 -838 -833 -5 0 -215 206 -468 459 l-458 458 163 7 c90 3 355
11 589 16 234 6 454 12 490 13 36 2 195 4 354 5 l288 2 -120 -127z"/>
<path d="M6680 9073 l0 -2227 30 -31 30 -31 -35 4 c-33 4 -41 -2 -161 -124
-295 -302 -1334 -1396 -1330 -1401 1 -1 150 2 331 8 182 5 472 14 645 19 762
23 1144 36 1740 58 l174 7 -463 490 c-255 270 -509 537 -565 595 -55 58 171
-166 504 -497 l605 -603 618 0 617 0 0 785 0 785 -223 0 -222 0 -363 363 -362
362 0 940 0 940 -515 515 -515 515 0 377 0 378 -270 0 -270 0 0 -2227z m430
1769 l0 -347 515 -515 515 -515 0 -940 0 -940 393 -392 392 -393 190 -2 190
-3 0 -670 0 -670 -535 -3 -535 -2 -722 722 -723 723 0 2147 0 2148 160 0 160
0 0 -348z m278 -4897 l465 -490 -184 -7 c-221 -8 -1262 -43 -1769 -59 -201 -6
-377 -10 -391 -8 -24 4 -8 24 204 249 326 348 592 625 806 844 l185 189 110
-114 c61 -63 319 -334 574 -604z"/>
<path d="M11120 6125 l0 -785 760 0 760 0 0 785 0 785 -760 0 -760 0 0 -785z
m1410 0 l0 -675 -650 0 -650 0 0 675 0 675 650 0 650 0 0 -675z"/>
</g>
</svg>
